<svg id="Layer_1" data-name="Layer 1" xmlns="http://www.w3.org/2000/svg" viewBox="0 0 962.26 304.5"><defs><style>.cls-1{font-size:175px;fill:#1a1a1a;font-family:Aldrich-Regular, Aldrich;}.cls-2{fill:none;stroke:#1a1a1a;stroke-linecap:round;stroke-miterlimit:10;stroke-width:17px;}.cls-3{fill:#00d865;}</style></defs><title>BlogLab-green-logo-light</title><text class="cls-1" transform="translate(264.14 216.36)">BlogLab</text><path class="cls-2" d="M259,167c-14,0-23.86,8-23.86,23.56h0V307.44A34.7,34.7,0,0,1,200.29,342H103.71a34.7,34.7,0,0,1-34.85-34.56V190.56h0C68.86,176,60,167,46,167" transform="translate(-37.5 -46)"/><path class="cls-3" d="M183,235v.26a5,5,0,0,0,5,5h28V259H188a5,5,0,0,0-5,5v.26a5,5,0,0,0,5,5h28V289H188a5,5,0,0,0-5,5v.26a5,5,0,0,0,5,5h28V300c0,16.11-6.71,23.74-21.76,23.74H109.5c-15,0-21.77-7.63-21.77-23.74V194.69h36.83c8.19,0,18.17-2.56,24.78-7.32l6.58-4.73a20.42,20.42,0,0,1,23.64-.08l7.94,5.63a35.53,35.53,0,0,0,20.5,6.5h8V230H188A5,5,0,0,0,183,235Z" transform="translate(-37.5 -46)"/><circle class="cls-3" cx="103.5" cy="9" r="9"/><circle class="cls-3" cx="135.5" cy="50" r="25"/><circle class="cls-3" cx="96.5" cy="97" r="18"/><path class="cls-3" d="M183,235v.26a5,5,0,0,0,5,5h28V259H188a5,5,0,0,0-5,5v.26a5,5,0,0,0,5,5h28V289H188a5,5,0,0,0-5,5v.26a5,5,0,0,0,5,5h28V300c0,16.11-6.71,23.74-21.76,23.74H109.5c-15,0-21.77-7.63-21.77-23.74V194.69h36.83c8.19,0,18.17-2.56,24.78-7.32l6.58-4.73a20.42,20.42,0,0,1,23.64-.08l7.94,5.63a35.53,35.53,0,0,0,20.5,6.5h8V230H188A5,5,0,0,0,183,235Z" transform="translate(-37.5 -46)"/></svg>