<svg id="Layer_1" data-name="Layer 1" xmlns="http://www.w3.org/2000/svg" viewBox="0 0 230 304.5"><defs><style>.cls-1{fill:none;stroke:#1a1a1a;stroke-linecap:round;stroke-miterlimit:10;stroke-width:17px;}.cls-2{fill:#29abe2;}</style></defs><title>BlogLab-Icon-light</title><path class="cls-1" d="M270.35,149.64c-14,0-23.85,8-23.85,23.56h0V290.09a34.71,34.71,0,0,1-34.86,34.55H115.07a34.71,34.71,0,0,1-34.86-34.55V173.2h0c0-14.56-8.86-23.56-22.86-23.56" transform="translate(-48.85 -28.64)"/><path class="cls-2" d="M194.35,217.64v.26a5,5,0,0,0,5,5h28v18.74h-28a5,5,0,0,0-5,5v.26a5,5,0,0,0,5,5h28v19.74h-28a5,5,0,0,0-5,5v.26a5,5,0,0,0,5,5h28v.78c0,16.11-6.71,23.74-21.76,23.74H120.85c-15,0-21.77-7.63-21.77-23.74V177.33h36.83c8.19,0,18.17-2.56,24.78-7.32l6.58-4.73a20.42,20.42,0,0,1,23.64-.08l7.94,5.63a35.53,35.53,0,0,0,20.5,6.5h8v35.31h-28A5,5,0,0,0,194.35,217.64Z" transform="translate(-48.85 -28.64)"/><circle class="cls-2" cx="103.5" cy="9" r="9"/><circle class="cls-2" cx="135.5" cy="50" r="25"/><circle class="cls-2" cx="96.5" cy="97" r="18"/><path class="cls-2" d="M194.35,217.64v.26a5,5,0,0,0,5,5h28v18.74h-28a5,5,0,0,0-5,5v.26a5,5,0,0,0,5,5h28v19.74h-28a5,5,0,0,0-5,5v.26a5,5,0,0,0,5,5h28v.78c0,16.11-6.71,23.74-21.76,23.74H120.85c-15,0-21.77-7.63-21.77-23.74V177.33h36.83c8.19,0,18.17-2.56,24.78-7.32l6.58-4.73a20.42,20.42,0,0,1,23.64-.08l7.94,5.63a35.53,35.53,0,0,0,20.5,6.5h8v35.31h-28A5,5,0,0,0,194.35,217.64Z" transform="translate(-48.85 -28.64)"/></svg>