<svg id="Layer_1" data-name="Layer 1" xmlns="http://www.w3.org/2000/svg" viewBox="0 0 962.26 304.5"><defs><style>.cls-1{font-size:175px;fill:#e6e6e6;font-family:Aldrich-Regular, Aldrich;}.cls-2{fill:none;stroke:#e6e6e6;stroke-linecap:round;stroke-miterlimit:10;stroke-width:17px;}.cls-3{fill:#29abe2;}</style></defs><title>BlogLab-logo-dark</title><text class="cls-1" transform="translate(264.14 216.36)">BlogLab</text><path class="cls-2" d="M264,181c-14,0-23.86,8-23.86,23.56h0V321.44A34.7,34.7,0,0,1,205.29,356H108.71a34.7,34.7,0,0,1-34.85-34.56V204.56h0C73.86,190,65,181,51,181" transform="translate(-42.5 -60)"/><path class="cls-3" d="M188,249v.26a5,5,0,0,0,5,5h28V273H193a5,5,0,0,0-5,5v.26a5,5,0,0,0,5,5h28V303H193a5,5,0,0,0-5,5v.26a5,5,0,0,0,5,5h28V314c0,16.11-6.71,23.74-21.76,23.74H114.5c-15,0-21.77-7.63-21.77-23.74V208.69h36.83c8.19,0,18.17-2.56,24.78-7.32l6.58-4.73a20.42,20.42,0,0,1,23.64-.08l7.94,5.63a35.53,35.53,0,0,0,20.5,6.5h8V244H193A5,5,0,0,0,188,249Z" transform="translate(-42.5 -60)"/><circle class="cls-3" cx="103.5" cy="9" r="9"/><circle class="cls-3" cx="135.5" cy="50" r="25"/><circle class="cls-3" cx="96.5" cy="97" r="18"/><path class="cls-3" d="M188,249v.26a5,5,0,0,0,5,5h28V273H193a5,5,0,0,0-5,5v.26a5,5,0,0,0,5,5h28V303H193a5,5,0,0,0-5,5v.26a5,5,0,0,0,5,5h28V314c0,16.11-6.71,23.74-21.76,23.74H114.5c-15,0-21.77-7.63-21.77-23.74V208.69h36.83c8.19,0,18.17-2.56,24.78-7.32l6.58-4.73a20.42,20.42,0,0,1,23.64-.08l7.94,5.63a35.53,35.53,0,0,0,20.5,6.5h8V244H193A5,5,0,0,0,188,249Z" transform="translate(-42.5 -60)"/></svg>